<?xml version="1.0" encoding="UTF-8" standalone="no"?>
<svg
   width="512"
   height="512"
   viewBox="0 0 512 512"
   version="1.1"
   id="svg7"
   sodipodi:docname="icon_light.svg"
   inkscape:version="1.4.3 (0d15f75, 2025-12-25)"
   xmlns:inkscape="http://www.inkscape.org/namespaces/inkscape"
   xmlns:sodipodi="http://sodipodi.sourceforge.net/DTD/sodipodi-0.dtd"
   xmlns="http://www.w3.org/2000/svg"
   xmlns:svg="http://www.w3.org/2000/svg">
  <defs
     id="defs7" />
  <sodipodi:namedview
     id="namedview7"
     pagecolor="#ffffff"
     bordercolor="#000000"
     borderopacity="0.25"
     inkscape:showpageshadow="2"
     inkscape:pageopacity="0.0"
     inkscape:pagecheckerboard="0"
     inkscape:deskcolor="#d1d1d1"
     inkscape:zoom="0.57245266"
     inkscape:cx="108.3059"
     inkscape:cy="313.56305"
     inkscape:window-width="1920"
     inkscape:window-height="1009"
     inkscape:window-x="-8"
     inkscape:window-y="1072"
     inkscape:window-maximized="1"
     inkscape:current-layer="svg7" />
  <path
     fill="#fe9700"
     d="M26.91 213.062c1.77-13.33 6.91-31.097 11.656-43.642C56.39 122.32 96.25 76.243 138.91 49.63a217 217 0 0 1 25.94-13.605 241.4 241.4 0 0 1 48.841-15.575c18.887-3.994 32.194-4.308 51.082-4.738 84.112-1.911 160.346 44.157 204.858 114.36 7.506 11.838 13.022 23.137 18.682 35.886-4.285 3.218-8.341 6.2-12.978 8.91-13.285 7.762-30.055 12.675-45.428 13.507-2.225 1.341-4.26 3.132-6.34 4.7-13.208 9.955-29.278 16.013-45.609 18.263-2.588.356-5.197.617-7.778.911-2.383 1.451-4.577 4.159-6.922 5.955-8.828 6.758-18.485 8.877-29.385 8.858-26.374-62.442-114.481-61.348-140 1.003-7.242 17.694-6.724 39.923.729 57.412 3.03 7.072 5.12 9.082 8.382 14.947-3.315-.415-6.814-1.045-10.128-1.595-12.578-2.086-25.851-4.391-38.062-8.129-2.843-.585-7.152-1.988-10.013-2.84a263.3 263.3 0 0 1-46.847-19.051c-4.06-2.11-8.238-4.244-12.1-6.687-15.598-8.278-34.015-23.793-46.594-36.128-4.221-4.139-8.217-9.024-12.33-12.932"
     id="path2"
     style="stroke:#000000;stroke-opacity:1;stroke-width:4;stroke-dasharray:none" />
  <path
     fill="#fed409"
     d="M26.91 213.062c1.77-13.33 6.91-31.097 11.656-43.642C56.39 122.32 96.25 76.243 138.91 49.63a217 217 0 0 1 25.94-13.605 241.4 241.4 0 0 1 48.841-15.575c18.887-3.994 32.194-4.308 51.082-4.738 84.112-1.911 160.346 44.157 204.858 114.36 7.506 11.838 13.022 23.137 18.682 35.886-4.285 3.218-8.341 6.2-12.978 8.91-13.285 7.762-30.055 12.675-45.428 13.507-.74-.682-5.664-11.648-6.704-13.607a170 170 0 0 0-11.483-18.953 179.01 179.01 0 0 0-106.229-73.198c-14.621-3.343-27.389-4.532-42.471-4.371-13.23.141-26.077.86-39.087 3.707-24.664 5.426-50.019 17.785-69.643 33.695-38.309 31.059-61.763 70.035-67.192 119.244a186 186 0 0 0-1.074 16.748c-.075 3.256.028 7.323-.19 10.482-15.598-8.278-34.015-23.793-46.594-36.128-4.221-4.139-8.217-9.024-12.33-12.932"
     id="path3"
     style="stroke:#000000;stroke-opacity:1;stroke-width:4;stroke-dasharray:none" />
  <path
     fill="#fe4625"
     d="M154.794 290.7c-.045-.735-1.469-5.947-1.766-7.15-.788-3.187-1.204-5.742-1.694-9.002a121.9 121.9 0 0 1 5.065-57.699c9.596-27.622 33.083-52.07 59.205-64.802 25.144-12.256 60.735-13.242 86.918-4.128 22.902 7.971 45.005 26.267 58.054 46.58 4.026 6.268 6.381 11.064 9.604 17.75-2.383 1.451-4.577 4.159-6.922 5.955-8.828 6.758-18.485 8.877-29.385 8.858-26.374-62.442-114.481-61.348-140 1.003-7.242 17.694-6.724 39.923.729 57.412 3.03 7.072 5.12 9.082 8.382 14.947-3.315-.415-6.814-1.045-10.128-1.595-12.578-2.086-25.851-4.391-38.062-8.129"
     id="path4"
     style="stroke:#000000;stroke-opacity:1;stroke-width:4;stroke-dasharray:none" />
  <path
     fill="#0197d8"
     d="M26.91 213.062c4.113 3.908 8.109 8.793 12.33 12.932 12.579 12.335 30.996 27.85 46.594 36.128 3.862 2.443 8.04 4.577 12.1 6.687a263.3 263.3 0 0 0 46.847 19.051c2.861.852 7.17 2.255 10.013 2.84 12.211 3.738 25.484 6.043 38.062 8.129 3.314.55 6.813 1.18 10.128 1.595l.187.197c2.276 2.445 4.022 5.372 6.39 7.768 13.63 13.797 30.931 22.365 50.478 22.909 17.051.474 32.056-8.454 48.517-11.668a126.1 126.1 0 0 1 43.257-.702c5.52.865 11.361 2.61 16.782 4.146 30.503 8.644 58.176 23.921 79.843 47.31a143 143 0 0 1 10.389 12.694c1.434 1.989 3.886 5.834 5.307 7.498-4.07 5.813-9.127 12.99-13.851 18.382-5.101 6.456-13.116 14.515-19.18 20.245-49.857 47.981-109.669 70.1-178.573 67.269-18.542-.761-40.599-4.128-58.497-9.481a248.4 248.4 0 0 1-43.577-18.174c-3.202-1.734-11.78-6.357-14.372-8.434-4.029-2.016-12.038-8.172-15.663-10.982a265.4 265.4 0 0 1-66.508-74.951c-2.527-4.314-7.609-13.346-9.355-17.965-2.31-3.639-6.538-15.46-7.99-19.711-13.814-40.408-16.052-81.778-9.658-123.712"
     id="path5"
     style="stroke:#000000;stroke-opacity:1;stroke-width:4;stroke-dasharray:none" />
  <path
     fill="#73cff6"
     d="M26.91 213.062c4.113 3.908 8.109 8.793 12.33 12.932 12.579 12.335 30.996 27.85 46.594 36.128 3.862 2.443 8.04 4.577 12.1 6.687a263.3 263.3 0 0 0 46.847 19.051c2.861.852 7.17 2.255 10.013 2.84 12.211 3.738 25.484 6.043 38.062 8.129 3.314.55 6.813 1.18 10.128 1.595l.187.197c2.276 2.445 4.022 5.372 6.39 7.768 13.63 13.797 30.931 22.365 50.478 22.909 17.051.474 32.056-8.454 48.517-11.668a126.1 126.1 0 0 1 43.257-.702c5.52.865 11.361 2.61 16.782 4.146 30.503 8.644 58.176 23.921 79.843 47.31a143 143 0 0 1 10.389 12.694c1.434 1.989 3.886 5.834 5.307 7.498-4.07 5.813-9.127 12.99-13.851 18.382-1.81-2.148-4.179-6.083-6.198-8.631a89.7 89.7 0 0 0-29.137-24.084c-23.216-12.079-49.796-13.782-75.395-12.989-22.11.685-44.408 3.687-66.277 6.763a4602 4602 0 0 1-54.987 7.457c-21.281 2.55-42.719 4.463-64.169 4.036-6.926-.138-13.554.032-20.532-.377a224.8 224.8 0 0 1-69.16-15.248 151 151 0 0 1-12.613-5.827c-1.977-1.006-5.228-3.012-7.257-3.573-2.31-3.639-6.538-15.46-7.99-19.711-13.814-40.408-16.052-81.778-9.658-123.712"
     id="path6"
     style="stroke:#000000;stroke-opacity:1;stroke-width:4;stroke-dasharray:none" />
  <path
     fill="#0053cb"
     d="M136.084 460.383c2.173-.649 6.101-.887 8.492-1.135a769 769 0 0 0 14.975-1.65c33.147-4.299 66.261-13.441 98.526-21.877 33.785-8.834 67.332-18.446 102.298-21.093 22.223-1.682 44.961-.678 64.885 10.498 1.763.989 4.589 2.542 5.843 4.077-49.857 47.981-109.669 70.1-178.573 67.269-18.542-.761-40.599-4.128-58.497-9.481a248.4 248.4 0 0 1-43.577-18.174c-3.202-1.734-11.78-6.357-14.372-8.434"
     id="path7"
     style="stroke:#000000;stroke-opacity:1;stroke-width:4;stroke-dasharray:none" />
</svg>
